#!OML:ASF H:\Terrain\Patient Classification 1\Takeo\Monday\TakeoMonday.ASF
:FULLY-SPECIFIED
:DEGREES
1328
root 8.77543 17.8345 0.441627 -4.97092 12.2703 -4.83272
lowerback 10.4133 -2.73866 1.76972
upperback 1.97459 -3.62512 -4.36403
thorax -4.16935 -1.84329 -5.06072
lowerneck -13.1391 -9.68795 -4.99447
upperneck -4.63894 -12.1078 2.28189
head 1.16684 -5.91401 0.913387
rclavicle 1.39149e-014 4.29375e-014
rhumerus 25.2789 -14.0458 -19.3393
rradius 105.789
rwrist -8.81694
rhand -39.0564 35.3117
rfingers 7.12502
rthumb -12.0581 5.67908
lclavicle 1.39149e-014 4.29375e-014
lhumerus -40.8337 15.7898 72.851
lradius 38.1605
lwrist 29.0017
lhand -28.5065 15.2465
lfingers 7.12502
lthumb -1.87508 45.218
rfemur -5.10059 0.927913 24.312
rtibia 15.8738
rfoot -6.88723 -15.2021
rtoes 3.17937
lfemur 3.95323 0.604333 -15.3837
ltibia 19.8473
lfoot -17.8332 21.6545
ltoes -0.0258365
1329
root 8.79132 17.8349 0.423984 -5.01418 12.3268 -4.7955
lowerback 10.5592 -2.69674 1.78098
upperback 2.06691 -3.5575 -4.19734
thorax -4.13617 -1.8061 -4.89674
lowerneck -12.4493 -9.51802 -5.5959
upperneck -4.63123 -11.8549 2.96521
head 1.13782 -5.77467 1.26692
rclavicle -1.05356e-014 -3.49861e-014
rhumerus 24.69 -12.6559 -19.6388
rradius 107.285
rwrist -8.21159
rhand -39.2459 35.2521
rfingers 7.12502
rthumb -12.2408 5.63035
lclavicle -1.05356e-014 -3.49861e-014
lhumerus -40.6396 15.5653 73.2667
lradius 37.9841
lwrist 28.7721
lhand -28.4843 15.1098
lfingers 7.12502
lthumb -1.85367 45.0815
rfemur -5.08369 0.817353 24.1937
rtibia 15.8759
rfoot -6.91234 -15.125
rtoes 3.39701
lfemur 3.91619 0.626834 -15.4704
ltibia 19.9087
lfoot -17.9987 21.5597
ltoes 0.40579
1330
root 8.80795 17.8301 0.407458 -4.87343 12.4911 -4.55273
lowerback 10.5241 -2.66687 1.6903
upperback 2.19051 -3.52021 -4.13067
thorax -3.97372 -1.78135 -4.78348
lowerneck -12.0107 -9.29976 -5.99829
upperneck -4.57577 -11.551 3.45919
head 1.13466 -5.61544 1.52355
rclavicle -4.27387e-015 1.43125e-014
rhumerus 24.0984 -11.3518 -20.0537
rradius 108.601
rwrist -7.25059
rhand -39.3578 35.6612
rfingers 7.12502
rthumb -12.3487 6.04584
lclavicle -4.27387e-015 1.43125e-014
lhumerus -40.347 15.3712 73.7518
lradius 38.153
lwrist 28.8159
lhand -29.1297 16.3441
lfingers 7.12502
lthumb -2.47694 46.3095
rfemur -5.26335 0.74359 23.8558
rtibia 15.8708
rfoot -6.64859 -15.1889
rtoes 2.41185
lfemur 3.70349 0.60813 -15.8084
ltibia 19.9666
lfoot -18.0002 21.4825
ltoes 0.431216
1331
root 8.82562 17.8295 0.389782 -4.63667 12.644 -4.22089
lowerback 10.513 -2.64741 1.49586
upperback 2.19718 -3.51356 -4.1029
thorax -3.94662 -1.77475 -4.64495
lowerneck -11.4355 -9.08358 -6.1561
upperneck -4.5236 -11.2907 3.73855
head 1.07478 -5.48697 1.67741
rclavicle 5.86415e-015 4.77083e-015
rhumerus 23.5345 -9.81354 -20.5507
rradius 109.926
rwrist -6.68911
rhand -39.6779 36.8529
rfingers 7.12502
rthumb -12.6573 7.25647
lclavicle 5.86415e-015 4.77083e-015
lhumerus -40.3089 15.1371 74.203
lradius 38.6349
lwrist 29.3651
lhand -29.6058 17.6013
lfingers 7.12502
lthumb -2.93676 47.5608
rfemur -5.44441 0.814632 23.4101
rtibia 15.7476
rfoot -6.43667 -15.4381
rtoes 1.26615
lfemur 3.37962 0.642366 -16.248
ltibia 20.1
lfoot -17.9852 21.3403
ltoes 0.0601365
1332
root 8.84446 17.8318 0.37036 -4.50673 12.7976 -4.2194
lowerback 10.5781 -2.64107 1.67583
upperback 2.15551 -3.48259 -4.00061
thorax -4.02736 -1.76261 -4.64061
lowerneck -10.5588 -8.99566 -6.57046
upperneck -4.54225 -11.194 4.23856
head 0.979628 -5.43706 1.94854
rclavicle -5.00937e-014 -2.06736e-014
rhumerus 22.8418 -8.05661 -20.9293
rradius 111.274
rwrist -6.21734
rhand -40.6182 38.2381
rfingers 7.12502
rthumb -13.5637 8.6999
lclavicle -5.00937e-014 -2.06736e-014
lhumerus -40.1451 14.6549 74.6792
lradius 38.5563
lwrist 29.8764
lhand -29.7249 17.3934
lfingers 7.12502
lthumb -3.05176 47.3513
rfemur -5.58434 0.711821 23.3047
rtibia 15.5921
rfoot -5.99236 -15.5429
rtoes 1.06061
lfemur 3.06515 0.757817 -16.2955
ltibia 20.2924
lfoot -17.8847 21.1337
ltoes -0.819498
1333
root 8.86382 17.8377 0.35168 -4.33336 12.9061 -4.31074
lowerback 10.4891 -2.631 1.96566
upperback 2.18204 -3.43102 -3.86074
thorax -3.95328 -1.73845 -4.66884
lowerneck -9.97279 -8.87039 -7.14505
upperneck -4.32085 -11.0197 4.85142
head 1.02519 -5.34514 2.27297
rclavicle -1.68967e-015 -6.36111e-015
rhumerus 22.1826 -6.47347 -21.4196
rradius 112.53
rwrist -5.53163
rhand -41.0425 38.3042
rfingers 7.12502
rthumb -13.9726 8.79378
lclavicle -1.68967e-015 -6.36111e-015
lhumerus -39.8011 14.3225 75.1082
lradius 38.177
lwrist 29.7582
lhand -29.952 17.3808
lfingers 7.12502
lthumb -3.27111 47.3355
rfemur -5.83016 0.616848 23.296
rtibia 15.5188
rfoot -5.83101 -15.557
rtoes 1.79811
lfemur 2.70491 0.94465 -16.2289
ltibia 20.4445
lfoot -17.6546 20.9498
ltoes -1.39131
1334
root 8.88024 17.8408 0.33771 -4.18754 12.9434 -4.29545
lowerback 10.2562 -2.63776 2.07647
upperback 2.4268 -3.41973 -3.80013
thorax -3.56997 -1.72399 -4.68238
lowerneck -10.0334 -8.58374 -6.99445
upperneck -3.96884 -10.6612 4.94948
head 1.12826 -5.17009 2.29148
rclavicle -9.34288e-015 -1.59028e-014
rhumerus 21.7741 -5.11517 -22.3209
rradius 113.609
rwrist -4.72706
rhand -40.2814 37.5196
rfingers 7.12502
rthumb -13.239 7.96002
lclavicle -9.34288e-015 -1.59028e-014
lhumerus -39.2315 14.2089 75.391
lradius 37.9199
lwrist 29.5962
lhand -30.0372 16.9468
lfingers 7.12502
lthumb -3.35338 46.9002
rfemur -6.01582 0.587649 23.2252
rtibia 15.5052
rfoot -5.91835 -15.5976
rtoes 0.849901
lfemur 2.4496 1.10732 -16.2795
ltibia 20.526
lfoot -17.4872 20.756
ltoes -1.34256
1335
root 8.89295 17.8388 0.323875 -4.21949 13.0093 -4.11258
lowerback 10.2794 -2.63097 2.00404
upperback 2.6988 -3.41031 -3.80483
thorax -3.29402 -1.70954 -4.65204
lowerneck -9.92512 -8.29306 -6.59587
upperneck -3.75353 -10.3308 4.80713
head 1.12736 -5.01575 2.19712
rclavicle -8.54774e-015 -3.33958e-014
rhumerus 21.3071 -3.53514 -23.2554
rradius 114.55
rwrist -3.86005
rhand -39.9548 37.1597
rfingers 7.12502
rthumb -12.9242 7.57994
lclavicle -8.54774e-015 -3.33958e-014
lhumerus -38.7737 14.0259 75.6712
lradius 37.896
lwrist 29.7268
lhand -30.0001 15.5814
lfingers 7.12502
lthumb -3.31752 45.5354
rfemur -5.99048 0.647317 22.989
rtibia 15.5245
rfoot -5.80399 -15.7137
rtoes -0.498288
lfemur 2.44035 1.21307 -16.5069
ltibia 20.554
lfoot -17.3517 20.5739
ltoes -1.26631
1336
root 8.90472 17.8365 0.306936 -4.21101 13.085 -3.7754
lowerback 10.5946 -2.59154 1.69752
upperback 2.68739 -3.38622 -3.73598
thorax -3.45596 -1.69674 -4.39706
lowerneck -9.29557 -8.11121 -6.9536
upperneck -3.41349 -10.1101 5.1169
head 1.16098 -4.9091 2.39062
rclavicle 1.59028e-015 -3.81667e-014
rhumerus 20.7001 -1.50167 -23.8995
rradius 115.413
rwrist -3.0304
rhand -40.9527 37.4816
rfingers 7.12502
rthumb -13.886 7.96517
lclavicle 1.59028e-015 -3.81667e-014
lhumerus -38.9355 13.8092 76.026
lradius 38.186
lwrist 29.8442
lhand -30.0885 14.7848
lfingers 7.12502
lthumb -3.40295 44.7374
rfemur -6.04633 0.802207 22.5591
rtibia 15.6623
rfoot -5.77423 -15.9217
rtoes -0.18141
lfemur 2.48147 1.16507 -16.934
ltibia 20.48
lfoot -17.4418 20.4022
ltoes -0.69791
1337
root 8.91891 17.8371 0.289133 -4.04286 13.1193 -3.65713
lowerback 10.7232 -2.56358 1.56973
upperback 2.59161 -3.3586 -3.56861
thorax -3.60708 -1.68438 -4.14572
lowerneck -8.90294 -7.85053 -7.21154
upperneck -2.8016 -9.78561 5.28634
head 1.30101 -4.75256 2.51452
rclavicle 1.68967e-014 3.65764e-014
rhumerus 20.0333 0.731158 -24.3742
rradius 116.034
rwrist -1.6576
rhand -42.1614 38.5867
rfingers 7.12502
rthumb -15.0506 9.15383
lclavicle 1.68967e-014 3.65764e-014
lhumerus -39.2297 13.6908 76.3587
lradius 38.5332
lwrist 29.885
lhand -30.073 14.0228
lfingers 7.12502
lthumb -3.388 43.9756
rfemur -6.39626 0.854368 22.3538
rtibia 15.9424
rfoot -6.06122 -16.0066
rtoes 1.03936
lfemur 2.38886 0.913315 -17.1591
ltibia 20.2719
lfoot -17.7752 20.2048
ltoes 0.741406
1338
root 8.93531 17.8392 0.267045 -3.85807 13.1957 -3.43294
lowerback 10.8084 -2.50984 1.5055
upperback 2.64025 -3.29118 -3.53794
thorax -3.59202 -1.64898 -4.08476
lowerneck -9.00524 -7.5783 -6.7849
upperneck -2.0988 -9.47028 4.93262
head 1.48296 -4.60666 2.32696
rclavicle 1.33186e-014 4.77083e-014
rhumerus 19.2503 2.70004 -24.9441
rradius 116.65
rwrist -0.597974
rhand -42.015 39.3972
rfingers 7.12502
rthumb -14.9096 9.95378
lclavicle 1.33186e-014 4.77083e-014
lhumerus -38.9826 13.481 76.664
lradius 38.5866
lwrist 29.8821
lhand -29.9963 13.8471
lfingers 7.12502
lthumb -3.31387 43.8011
rfemur -6.67716 0.813121 22.0243
rtibia 16.1088
rfoot -6.21312 -15.9521
rtoes 2.00688
lfemur 2.24283 0.630834 -17.5215
ltibia 20.1294
lfoot -17.7921 20.3781
ltoes 1.25056
1339
root 8.95222 17.8434 0.244067 -3.72983 13.3331 -3.11262
lowerback 10.9464 -2.44028 1.42646
upperback 2.77792 -3.20395 -3.56306
thorax -3.5141 -1.60164 -4.07699
lowerneck -9.22451 -7.50873 -6.79001
upperneck -1.32513 -9.38207 4.91573
head 1.7717 -4.56444 2.30863
rclavicle -2.54444e-014 1.74931e-014
rhumerus 18.5001 4.30459 -25.8187
rradius 117.59
rwrist -0.844783
rhand -40.6441 39.0073
rfingers 7.12502
rthumb -13.5886 9.47075
lclavicle -2.54444e-014 1.74931e-014
lhumerus -38.3454 13.2749 77.0074
lradius 38.2933
lwrist 29.7874
lhand -29.8024 15.1609
lfingers 7.12502
lthumb -3.12658 45.1177
rfemur -6.71561 0.731156 21.5893
rtibia 15.981
rfoot -5.97458 -15.9804
rtoes 2.01537
lfemur 2.02823 0.509713 -17.9826
ltibia 20.2283
lfoot -17.4727 20.7717
ltoes 0.03929
1340
root 8.97076 17.8487 0.223251 -3.67299 13.3921 -3.30746
lowerback 11.0327 -2.38909 1.83714
upperback 2.84724 -3.08224 -3.40478
thorax -3.49113 -1.54234 -4.1597
lowerneck -9.51133 -7.46581 -6.93258
upperneck -0.326802 -9.31436 4.86384
head 2.15789 -4.53316 2.2978
rclavicle -9.93923e-015 3.81667e-014
rhumerus 17.8102 5.98143 -26.8167
rradius 118.348
rwrist -0.911876
rhand -39.7825 38.553
rfingers 7.12502
rthumb -12.7581 8.96278
lclavicle -9.93923e-015 3.81667e-014
lhumerus -38.1354 13.1734 77.3683
lradius 38.4227
lwrist 29.5614
lhand -29.5567 16.0424
lfingers 7.12502
lthumb -2.88933 46.0026
rfemur -6.73982 0.745741 21.703
rtibia 15.742
rfoot -5.90954 -16.1267
rtoes 2.96963
lfemur 1.75182 0.652402 -17.82
ltibia 20.4208
lfoot -17.2853 20.7013
ltoes -0.619056
1341
root 8.98436 17.851 0.206719 -3.69639 13.349 -3.73516
lowerback 11.1734 -2.29192 2.43354
upperback 2.83925 -2.87644 -3.17229
thorax -3.57492 -1.44518 -4.27965
lowerneck -9.26078 -7.30865 -6.73323
upperneck 0.265377 -9.15017 4.60413
head 2.27323 -4.46403 2.18795
rclavicle 2.74323e-014 1.43125e-014
rhumerus 17.058 7.9508 -27.7299
rradius 118.877
rwrist -0.624729
rhand -39.1758 37.9105
rfingers 7.12502
rthumb -12.1732 8.2847
lclavicle 2.74323e-014 1.43125e-014
lhumerus -38.3422 12.8259 77.7658
lradius 38.9435
lwrist 29.3523
lhand -29.5649 15.842
lfingers 7.12502
lthumb -2.89725 45.8021
rfemur -6.73101 0.915704 22.0919
rtibia 15.4703
rfoot -5.90743 -16.3154
rtoes 3.87985
lfemur 1.55718 0.913981 -17.3612
ltibia 20.6192
lfoot -17.2848 20.3663
ltoes -0.136046
1342
root 8.99344 17.8552 0.192788 -3.66539 13.3709 -3.83194
lowerback 11.3024 -2.20658 2.60736
upperback 2.84672 -2.73432 -3.00098
thorax -3.62396 -1.37585 -4.21564
lowerneck -8.6451 -7.09059 -6.78902
upperneck 0.492049 -8.90828 4.74388
head 2.23548 -4.35012 2.27627
rclavicle -8.34896e-015 -1.11319e-014
rhumerus 16.5298 10.0769 -28.5102
rradius 119.355
rwrist -0.418669
rhand -38.578 37.513
rfingers 7.12502
rthumb -11.5967 7.85386
lclavicle -8.34896e-015 -1.11319e-014
lhumerus -38.3328 12.3304 78.2377
lradius 39.1343
lwrist 29.5714
lhand -29.6152 16.0082
lfingers 7.12502
lthumb -2.94583 45.9676
rfemur -6.70186 0.898154 22.1582
rtibia 15.181
rfoot -5.55794 -16.4037
rtoes 2.23983
lfemur 1.34298 1.07117 -17.2646
ltibia 20.8131
lfoot -17.2994 20.1721
ltoes 0.0861804
